<svg id="visual" viewBox="0 0 1920 300" width="1920" height="300" xmlns="http://www.w3.org/2000/svg" xmlns:xlink="http://www.w3.org/1999/xlink" version="1.1"><rect x="0" y="0" width="1920" height="300" fill="#fafbfd"></rect><path d="M0 195L22.8 198.3C45.7 201.7 91.3 208.3 137 195.5C182.7 182.7 228.3 150.3 274 150.5C319.7 150.7 365.3 183.3 411.2 191.3C457 199.3 503 182.7 548.8 163.8C594.7 145 640.3 124 686 122.2C731.7 120.3 777.3 137.7 823 136.3C868.7 135 914.3 115 960 115.8C1005.7 116.7 1051.3 138.3 1097 158C1142.7 177.7 1188.3 195.3 1234 198.2C1279.7 201 1325.3 189 1371.2 176.2C1417 163.3 1463 149.7 1508.8 148C1554.7 146.3 1600.3 156.7 1646 157.7C1691.7 158.7 1737.3 150.3 1783 139.8C1828.7 129.3 1874.3 116.7 1897.2 110.3L1920 104L1920 0L1897.2 0C1874.3 0 1828.7 0 1783 0C1737.3 0 1691.7 0 1646 0C1600.3 0 1554.7 0 1508.8 0C1463 0 1417 0 1371.2 0C1325.3 0 1279.7 0 1234 0C1188.3 0 1142.7 0 1097 0C1051.3 0 1005.7 0 960 0C914.3 0 868.7 0 823 0C777.3 0 731.7 0 686 0C640.3 0 594.7 0 548.8 0C503 0 457 0 411.2 0C365.3 0 319.7 0 274 0C228.3 0 182.7 0 137 0C91.3 0 45.7 0 22.8 0L0 0Z" fill="#fff" stroke-linecap="round" stroke-linejoin="miter"></path></svg>